<?xml version="1.0" encoding="UTF-8"?><svg id="Layer_2" xmlns="http://www.w3.org/2000/svg" width="627.84" height="120.09" xmlns:xlink="http://www.w3.org/1999/xlink" viewBox="0 0 627.84 120.09"><defs><style>.cls-1{fill:url(#linear-gradient);}.cls-1,.cls-2,.cls-3{stroke-width:0px;}.cls-2{fill:url(#linear-gradient-2);}.cls-3{fill:#5f73a0;}</style><linearGradient id="linear-gradient" x1="0" y1="79.46" x2="119.23" y2="79.46" gradientUnits="userSpaceOnUse"><stop offset="0" stop-color="#5f73a0"/><stop offset="1" stop-color="#6c947f"/></linearGradient><linearGradient id="linear-gradient-2" x1="38.11" y1="21.52" x2="81.14" y2="21.52" xlink:href="#linear-gradient"/></defs><g id="Layer_1-2"><path class="cls-3" d="m179.12,66.82c-1.13,1.3-2.61,2.46-4.42,3.48-1.81,1.02-4.08,1.53-6.79,1.53s-5.27-.49-7.64-1.49c-2.38-.99-4.45-2.41-6.2-4.25-1.76-1.84-3.14-4.06-4.16-6.67-1.02-2.6-1.53-5.49-1.53-8.66,0-2.55.33-5.15.98-7.81.65-2.66,1.75-5.07,3.31-7.22,1.56-2.15,3.67-3.91,6.33-5.27,2.66-1.36,6-2.04,10.02-2.04,2.09,0,3.95.16,5.56.47,1.61.31,2.99.69,4.12,1.15V13.65h13.85l-.26,5.94v51.81h-12.66l-.51-4.59Zm-16.22-16.39c0,3.96.72,6.68,2.17,8.15,1.44,1.47,3.38,2.21,5.82,2.21,1.58,0,3.06-.2,4.42-.59,1.36-.4,2.49-.76,3.4-1.1l-.08-18.43c-1.19-.23-2.31-.43-3.35-.59-1.05-.17-2.59-.26-4.63-.26-2.15,0-3.98.88-5.48,2.63-1.5,1.76-2.25,4.42-2.25,7.99"/><path class="cls-3" d="m238.58,69.79c-1.3.45-2.75.82-4.33,1.1-1.42.28-3.06.55-4.93.81-1.87.25-3.96.38-6.29.38-3.57,0-6.88-.42-9.94-1.27-3.06-.85-5.71-2.18-7.94-3.99-2.24-1.81-4.01-4.17-5.31-7.09-1.3-2.92-1.95-6.44-1.95-10.58,0-3,.54-5.76,1.61-8.28,1.07-2.52,2.6-4.69,4.59-6.5,1.98-1.81,4.4-3.23,7.26-4.25,2.86-1.02,6.1-1.53,9.73-1.53,2.89,0,5.36.41,7.43,1.23,2.07.82,3.81,1.91,5.22,3.27,1.42,1.36,2.55,2.9,3.4,4.63.85,1.73,1.5,3.5,1.95,5.31.45,1.81.74,3.58.85,5.31.11,1.73.17,3.27.17,4.63h-26.84c.23,1.42.62,2.59,1.19,3.52.57.93,1.35,1.67,2.34,2.21.99.54,2.19.91,3.61,1.1,1.41.2,3.11.3,5.1.3.96,0,2.21-.14,3.74-.42,1.53-.28,3-.59,4.42-.93,1.7-.39,3.45-.85,5.27-1.36l-.34,12.4Zm-18.09-29.56c-1.7,0-3.24.51-4.63,1.53-1.39,1.02-2.31,2.58-2.76,4.67h13.17c-.17-1.75-.67-3.23-1.49-4.42-.82-1.19-2.25-1.78-4.29-1.78"/><path class="cls-3" d="m280.2,57.73c0,3-.75,5.42-2.25,7.26-1.5,1.84-3.28,3.26-5.35,4.25-2.07.99-4.18,1.66-6.33,2-2.15.34-3.88.51-5.18.51-3.11,0-5.76-.11-7.94-.34-2.18-.23-3.95-.48-5.31-.76-1.59-.34-2.89-.71-3.91-1.1l.68-12.82c1.3.57,2.56,1,3.78,1.32,1.22.31,2.69.61,4.42.89,1.73.28,3.64.48,5.73.59,2.49.11,4.3,0,5.44-.34,1.13-.34,1.73-.91,1.78-1.7.06-1.13-.52-1.9-1.74-2.29-1.22-.4-2.93-.74-5.14-1.02-5.27-.62-9.07-1.88-11.42-3.78-2.35-1.9-3.52-4.77-3.52-8.62,0-3,.74-5.38,2.21-7.13,1.47-1.75,3.21-3.1,5.22-4.03,2.01-.93,4.06-1.53,6.16-1.78,2.09-.25,3.77-.38,5.01-.38,3.06,0,5.61.13,7.64.38,2.04.26,3.71.52,5.01.81,1.53.34,2.75.74,3.65,1.19l-.68,12.32c-.45-.28-1.16-.58-2.12-.89-.96-.31-2.01-.61-3.14-.89-1.13-.28-2.28-.51-3.44-.68-1.16-.17-2.19-.28-3.1-.34-.85-.06-1.74-.1-2.68-.13-.94-.03-1.78.01-2.55.13-.76.11-1.4.3-1.91.55-.51.25-.77.64-.77,1.15,0,.57.33,1.05.98,1.44.65.4,1.51.72,2.59.98,1.08.26,2.29.48,3.65.68,1.36.2,2.75.44,4.16.72,3.85.57,6.54,1.9,8.07,3.99,1.53,2.09,2.29,4.73,2.29,7.9"/><path class="cls-3" d="m319.52,68.94c-1.02.51-2.15.96-3.4,1.36-1.08.4-2.35.74-3.82,1.02-1.47.28-3.09.42-4.84.42-3,0-5.92-.42-8.75-1.27-2.83-.85-5.34-2.18-7.52-3.99-2.18-1.81-3.94-4.18-5.27-7.09-1.33-2.92-2-6.44-2-10.58,0-3,.59-5.73,1.78-8.2,1.19-2.46,2.81-4.59,4.88-6.37,2.07-1.78,4.47-3.17,7.22-4.16,2.75-.99,5.68-1.49,8.79-1.49,1.41,0,2.83.08,4.25.26,1.42.17,2.69.34,3.82.51,1.36.28,2.69.57,3.99.85v11.98c-1.36-.22-2.72-.42-4.08-.59-1.19-.17-2.46-.31-3.82-.42-1.36-.11-2.63-.17-3.82-.17-2.72,0-4.8.67-6.24,2-1.44,1.33-2.17,3.21-2.17,5.65,0,4.02.84,6.81,2.51,8.37,1.67,1.56,4.32,2.34,7.94,2.34.96,0,2.05-.17,3.27-.51,1.22-.34,2.39-.73,3.53-1.19,1.3-.51,2.63-1.08,3.99-1.7l-.25,13Z"/><path class="cls-3" d="m398.94,40.49c-1.19,0-2.37.13-3.53.38-1.16.25-2.22.55-3.18.89v29.64h-13.59V28.94h12.15l1.1,4.5c1.36-1.3,2.96-2.46,4.8-3.48,1.84-1.02,3.92-1.53,6.24-1.53,3.06,0,5.7.69,7.94,2.08,2.24,1.39,4,3.33,5.31,5.82.79-.79,1.73-1.66,2.8-2.59,1.08-.93,2.25-1.8,3.53-2.59,1.27-.79,2.65-1.44,4.12-1.95,1.47-.51,3-.76,4.59-.76,2.6,0,4.88.5,6.84,1.49,1.95.99,3.6,2.39,4.93,4.2,1.33,1.81,2.32,3.99,2.97,6.54.65,2.55.98,5.38.98,8.49h-.17.17l.68,22.25h-13.67l-.68-23.02c0-1.41-.21-2.62-.64-3.61-.42-.99-.99-1.81-1.7-2.46-.71-.65-1.5-1.12-2.38-1.4-.88-.28-1.77-.43-2.68-.43-1.59,0-3.03.21-4.33.64-1.3.42-2.38.92-3.23,1.49.4,1.93.59,4.11.59,6.54l.68,22.25h-13.67l-.68-23.53c0-2.83-.55-4.77-1.66-5.82-1.1-1.05-2.65-1.57-4.63-1.57"/><path class="cls-3" d="m478.78,71.92c-2.1,0-3.96-.16-5.61-.47-1.64-.31-3.06-.69-4.25-1.15v16.39h-13.85l.26-5.95V28.94h12.65l.6,5.1c1.3-1.36,2.97-2.62,5.01-3.78,2.04-1.16,4.56-1.74,7.56-1.74,2.72,0,5.21.42,7.47,1.27,2.26.85,4.19,2.14,5.78,3.86,1.58,1.73,2.82,3.91,3.69,6.54.88,2.63,1.32,5.76,1.32,9.39,0,2.61-.35,5.24-1.06,7.9-.71,2.66-1.88,5.07-3.53,7.22-1.64,2.15-3.77,3.89-6.37,5.22-2.61,1.33-5.83,2-9.68,2m-9.85-12.32c1.24.23,2.56.42,3.95.59,1.39.17,2.82.26,4.29.26,1.36,0,2.55-.28,3.57-.85,1.02-.57,1.85-1.32,2.51-2.25.65-.93,1.13-2.05,1.44-3.36.31-1.3.47-2.66.47-4.08,0-2.04-.2-3.71-.59-5.01-.4-1.3-.96-2.35-1.7-3.14-.74-.79-1.63-1.35-2.68-1.66-1.05-.31-2.22-.47-3.53-.47-1.59,0-3.04.2-4.37.59-1.33.4-2.45.82-3.35,1.27v18.09Z"/><polygon class="cls-3" points="518.44 19.6 518.44 71.41 504.85 71.41 504.85 13.65 518.7 13.65 518.44 19.6"/><path class="cls-3" d="m541.63,16.28c0,2.38-.69,4.28-2.08,5.69-1.39,1.42-3.27,2.12-5.65,2.12s-4.19-.71-5.61-2.12c-1.42-1.42-2.12-3.31-2.12-5.69s.71-4.18,2.12-5.56c1.42-1.39,3.28-2.08,5.61-2.08s4.26.69,5.65,2.08c1.39,1.39,2.08,3.24,2.08,5.56m-1.02,18.6v36.52h-13.59V28.94h13.85l-.25,5.95Z"/><path class="cls-3" d="m582.65,68.94c-1.02.51-2.15.96-3.4,1.36-1.08.4-2.35.74-3.82,1.02-1.47.28-3.09.42-4.84.42-3,0-5.92-.42-8.75-1.27-2.83-.85-5.34-2.18-7.52-3.99-2.18-1.81-3.94-4.18-5.27-7.09-1.33-2.92-2-6.44-2-10.58,0-3,.59-5.73,1.78-8.2,1.19-2.46,2.82-4.59,4.88-6.37,2.07-1.78,4.47-3.17,7.22-4.16,2.75-.99,5.68-1.49,8.79-1.49,1.41,0,2.83.08,4.25.26,1.42.17,2.69.34,3.82.51,1.36.28,2.69.57,3.99.85v11.98c-1.36-.22-2.72-.42-4.08-.59-1.19-.17-2.46-.31-3.82-.42-1.36-.11-2.63-.17-3.82-.17-2.72,0-4.8.67-6.24,2-1.44,1.33-2.17,3.21-2.17,5.65,0,4.02.84,6.81,2.51,8.37,1.67,1.56,4.32,2.34,7.94,2.34.96,0,2.05-.17,3.27-.51,1.22-.34,2.39-.73,3.53-1.19,1.3-.51,2.63-1.08,3.99-1.7l-.25,13Z"/><path class="cls-3" d="m608.31,28.43c3.68,0,6.77.52,9.26,1.57,2.49,1.05,4.5,2.38,6.03,3.99,1.53,1.61,2.62,3.34,3.27,5.18.65,1.84.98,3.58.98,5.22v27.01h-12.15l-1.27-6.54c-.57.74-1.29,1.49-2.17,2.25-.88.76-1.87,1.46-2.97,2.08-1.1.62-2.37,1.15-3.78,1.57-1.42.42-2.97.64-4.67.64-1.19,0-2.58-.14-4.16-.42-1.59-.28-3.09-.91-4.5-1.87-1.42-.96-2.62-2.36-3.61-4.2-.99-1.84-1.49-4.32-1.49-7.43,0-1.98.38-3.77,1.15-5.35.77-1.59,1.81-2.93,3.14-4.03,1.33-1.1,2.9-1.97,4.71-2.59,1.81-.62,3.79-.93,5.94-.93,1.3,0,2.43.06,3.4.17.96.12,1.88.26,2.76.42.88.17,1.8.33,2.76.47.96.14,2.07.21,3.31.21-.11-1.81-.5-3.14-1.15-3.99-.65-.85-1.8-1.36-3.44-1.53-1.19-.11-2.63-.13-4.33-.04-1.7.08-3.47.25-5.31.51-1.84.26-3.62.61-5.35,1.06-1.73.45-3.21.99-4.46,1.61l-.42-12.74c1.36-.45,2.97-.85,4.84-1.19,1.58-.28,3.51-.54,5.78-.77,2.26-.22,4.9-.34,7.9-.34m-6.79,29.47c0,1.13.45,1.88,1.36,2.25.91.37,1.92.58,3.06.64,1.07,0,2.41-.24,3.99-.72,1.58-.48,3.03-1.12,4.33-1.91l-.08-3.74c-2.38,0-4.39.01-6.03.04-1.64.03-2.95.14-3.91.34-.96.2-1.66.54-2.08,1.02-.42.48-.64,1.18-.64,2.08"/><path class="cls-3" d="m171.37,93.79v19.46h-2.57v-15.54l-6.6,11.45h-1.44l-6.6-11.45v15.54h-2.59v-19.46h3.27l6.65,11.56,6.68-11.56h3.19Z"/><path class="cls-3" d="m188.82,110.82v2.42h-12.89v-19.46h12.75v2.43h-10.15v6.03h9.22v2.42h-9.22v6.15h10.29Z"/><path class="cls-3" d="m209.85,103.52c0,5.56-4.23,9.73-9.87,9.73h-7.5v-19.46h7.5c5.64,0,9.87,4.17,9.87,9.73Zm-2.65,0c0-4.17-3.13-7.3-7.25-7.3h-4.88v14.61h4.88c4.12,0,7.25-3.13,7.25-7.3Z"/><path class="cls-3" d="m213.35,93.79h2.59v19.46h-2.59v-19.46Z"/><path class="cls-3" d="m219.46,103.52c0-5.72,4.37-10.07,10.18-10.07,3.61,0,6.68,1.72,8.49,4.37l-2.23,1.38c-1.33-2-3.58-3.27-6.26-3.27-4.29,0-7.53,3.27-7.53,7.58s3.24,7.59,7.53,7.59c2.68,0,4.93-1.27,6.26-3.27l2.23,1.38c-1.8,2.65-4.88,4.37-8.49,4.37-5.81,0-10.18-4.34-10.18-10.07Z"/><path class="cls-3" d="m241.43,93.79h2.59v19.46h-2.59v-19.46Z"/><path class="cls-3" d="m264.83,93.79v19.46h-2.65l-11-15.14v15.14h-2.59v-19.46h2.68l11,15.2v-15.2h2.57Z"/><path class="cls-3" d="m281.92,108.54h-9.53l-1.89,4.71h-2.76l7.92-19.46h3.07l7.92,19.46h-2.85l-1.89-4.71Zm-.96-2.4l-3.81-9.56-3.81,9.56h7.61Z"/><path class="cls-3" d="m371.3,40.49c-1.27-2.54-3.03-4.7-5.24-6.46-2.21-1.74-4.79-3.1-7.8-4.02-3.01-.94-6.27-1.41-9.77-1.41-3.78,0-7.21.52-10.27,1.53-3.05,1.01-5.66,2.44-7.78,4.25-2.11,1.81-3.76,3.97-4.89,6.48-1.13,2.54-1.69,5.29-1.69,8.29,0,4.54.82,8.25,2.49,11.16,1.67,2.91,3.76,5.24,6.25,6.93,2.49,1.69,5.17,2.87,8.04,3.52,2.84.66,5.47.96,7.85.96s5.07-.31,7.94-.96c2.87-.66,5.54-1.81,8.03-3.48,2.49-1.67,4.56-3.97,6.23-6.88,1.69-2.91,2.51-6.67,2.51-11.25,0-3.22-.63-6.11-1.9-8.67m-10.31,13.58c0,.52-.42.94-.94.94h-6.95v6.95c0,.52-.42.94-.94.94h-7.26c-.52,0-.94-.42-.94-.94v-6.95h-6.95c-.54,0-.94-.42-.94-.94v-7.28c0-.52.4-.92.94-.92h6.95v-6.98c0-.52.42-.94.94-.94h7.26c.52,0,.94.42.94.94v6.98h6.95c.52,0,.94.4.94.92v7.28Z"/><path class="cls-1" d="m97.55,38.83h-12.05c-1.48.05-5.15.37-8.48,2.46-2.97,1.85-6.51,5.63-6.51,13.17v16.9h-10.9c-2.99,0-5.4,2.43-5.4,5.4,0,1.51.6,2.85,1.58,3.83.97.97,2.34,1.58,3.83,1.58h10.9v16.25c0,6-4.87,10.87-10.87,10.87s-10.87-4.87-10.87-10.87v-27.05h-.05v-16.9c0-11.34-8.14-15.49-15.09-15.62h-11.94C9.71,38.83,0,48.57,0,60.51s9.71,21.68,21.68,21.68h4.2v-.02h1.53c2.99,0,5.4-2.41,5.4-5.4,0-1.48-.6-2.83-1.58-3.83-.88-.86-2.04-1.44-3.36-1.55-.16,0-.3-.02-.46-.02h-5.4c-.16,0-.3.02-.44.02-5.93-.05-10.76-4.91-10.76-10.87s4.87-10.87,10.87-10.87h11.75c.88.09,3.38.49,4.17,2.43.21.67.28,1.46.28,2.39,0,.83.02,1.53.02,2.13v25.59h.05v16.23c0,5.8,2.25,11.22,6.35,15.32,4.1,4.1,9.53,6.35,15.32,6.35,11.96,0,21.68-9.71,21.68-21.68v-16.23h16.25c11.96,0,21.68-9.71,21.68-21.68s-9.71-21.68-21.68-21.68Zm0,32.55h-16.25v-17.64c0-3.8,3.96-4.08,4.75-4.1h11.5c6,0,10.87,4.87,10.87,10.87s-4.87,10.87-10.87,10.87Z"/><path class="cls-2" d="m81.14,21.52c0-11.87-9.65-21.52-21.51-21.52-11.86,0-21.51,9.65-21.51,21.52,0,11.86,9.65,21.51,21.51,21.51,11.86,0,21.51-9.65,21.51-21.51Zm-10.8,0c0,5.91-4.81,10.71-10.71,10.71s-10.71-4.81-10.71-10.71c0-5.91,4.8-10.72,10.71-10.72s10.71,4.81,10.71,10.72Z"/></g></svg>